HIERARCHY
ROOT joint_Root
{
	OFFSET 0.0 0.0 0.0
	CHANNELS 6 Xposition Yposition Zposition Zrotation Xrotation Yrotation 
	JOINT Hips
	{
		OFFSET 4.5925 91.4895 -427.239
		CHANNELS 6 Xposition Yposition Zposition Zrotation Xrotation Yrotation 
		JOINT Spine
		{
			OFFSET 15.7357 0.0 0.0
			CHANNELS 6 Xposition Yposition Zposition Zrotation Xrotation Yrotation 
			JOINT Chest
			{
				OFFSET 8.98455 -0.406207 0.0
				CHANNELS 6 Xposition Yposition Zposition Zrotation Xrotation Yrotation 
				JOINT Neck
				{
					OFFSET 16.3773 0.0 0.0
					CHANNELS 6 Xposition Yposition Zposition Zrotation Xrotation Yrotation 
					JOINT Head
					{
						OFFSET 6.45672 0.0 0.0
						CHANNELS 6 Xposition Yposition Zposition Zrotation Xrotation Yrotation 
						End Site
						{
							OFFSET 0.0 0.0 0.0
						}
					}
				}
				JOINT Shoulder_L
				{
					OFFSET 12.9942 -0.242716 4.98039
					CHANNELS 6 Xposition Yposition Zposition Zrotation Xrotation Yrotation 
					JOINT UpperArm_L
					{
						OFFSET 5.34809 0.0 0.0
						CHANNELS 6 Xposition Yposition Zposition Zrotation Xrotation Yrotation 
						JOINT LowerArm_L
						{
							OFFSET 24.3286 1.87007e-05 0.0
							CHANNELS 6 Xposition Yposition Zposition Zrotation Xrotation Yrotation 
							JOINT Hand_L
							{
								OFFSET 22.2916 0.0 0.0
								CHANNELS 6 Xposition Yposition Zposition Zrotation Xrotation Yrotation 
								End Site
								{
									OFFSET 0.0 0.0 0.0
								}
							}
						}
					}
				}
				JOINT Shoulder_R
				{
					OFFSET 12.9945 -0.242716 -4.98039
					CHANNELS 6 Xposition Yposition Zposition Zrotation Xrotation Yrotation 
					JOINT UpperArm_R
					{
						OFFSET -5.34813 0.0 0.0
						CHANNELS 6 Xposition Yposition Zposition Zrotation Xrotation Yrotation 
						JOINT LowerArm_R
						{
							OFFSET -24.3289 0.000322201 0.0
							CHANNELS 6 Xposition Yposition Zposition Zrotation Xrotation Yrotation 
							JOINT Hand_R
							{
								OFFSET -22.2915 -0.000108084 0.0
								CHANNELS 6 Xposition Yposition Zposition Zrotation Xrotation Yrotation 
								End Site
								{
									OFFSET 0.0 0.0 0.0
								}
							}
						}
					}
				}
			}
		}
		JOINT UpperLeg_L
		{
			OFFSET -2.19248 -6.46944 0.0
			CHANNELS 6 Xposition Yposition Zposition Zrotation Xrotation Yrotation 
			JOINT LowerLeg_L
			{
				OFFSET 39.0811 0.0 -1.23785e-05
				CHANNELS 6 Xposition Yposition Zposition Zrotation Xrotation Yrotation 
				JOINT Foot_L
				{
					OFFSET 40.9854 0.0 -1.26872e-05
					CHANNELS 6 Xposition Yposition Zposition Zrotation Xrotation Yrotation 
					JOINT Toes_L
					{
						OFFSET 11.7543 0.0 0.0
						CHANNELS 6 Xposition Yposition Zposition Zrotation Xrotation Yrotation 
						End Site
						{
							OFFSET 0.0 0.0 0.0
						}
					}
				}
			}
		}
		JOINT UpperLeg_R
		{
			OFFSET -2.19251 6.46944 0.0
			CHANNELS 6 Xposition Yposition Zposition Zrotation Xrotation Yrotation 
			JOINT LowerLeg_R
			{
				OFFSET -39.0811 -0.00228153 -0.0401928
				CHANNELS 6 Xposition Yposition Zposition Zrotation Xrotation Yrotation 
				JOINT Foot_R
				{
					OFFSET -40.9854 0.0 0.0
					CHANNELS 6 Xposition Yposition Zposition Zrotation Xrotation Yrotation 
					JOINT Toes_R
					{
						OFFSET -11.7543 0.0 0.0
						CHANNELS 6 Xposition Yposition Zposition Zrotation Xrotation Yrotation 
						End Site
						{
							OFFSET 0.0 0.0 0.0
						}
					}
				}
			}
		}
	}
}
MOTION
Frames:	5
Frame Time:	0.0333333
0.000000 0.000000 0.000000 0.000000 0.000000 -0.000000 -1.007670 90.107700 -4.939170 89.089100 -3.170280 11.113700 15.735700 0.000005 -0.000001 89.166200 77.176200 -89.317600 8.984550 -0.406207 -0.000000 17.878700 -0.379752 -0.243563 16.377300 -0.000001 -0.000001 3.518210 -5.036750 2.367840 6.456720 -0.000001 -0.000000 -6.588790 -4.079120 0.231040 12.994200 -0.242716 4.980390 -91.131900 6.186060 -79.609700 5.348090 -0.000007 -0.000001 -55.170100 36.095500 -31.468000 24.328600 0.000019 0.000005 9.083870 21.697600 -23.386300 22.291600 -0.000001 0.000005 15.451100 5.147190 4.008590 12.994500 -0.242716 -4.980390 89.372800 10.518200 -86.568300 -5.348130 -0.000001 -0.000004 -56.400200 33.189400 -25.372000 -24.328900 0.000322 -0.000009 2.391010 5.871300 -22.213900 -22.291500 -0.000108 -0.000004 18.422200 5.380660 -2.318550 -2.192480 -6.469440 -0.000000 -174.218000 -11.735900 -4.793980 39.081100 -0.000007 -0.000012 -0.213367 0.296747 35.717300 40.985400 -0.000006 -0.000013 -0.033797 4.335150 -69.527800 11.754300 -0.000000 0.000003 -0.000072 -0.000776 -16.607500 -2.192510 6.469440 -0.000001 176.333000 18.120600 176.312000 -39.081100 -0.002282 -0.040193 -0.158952 0.231638 35.008100 -40.985400 0.000008 0.000006 4.839550 10.319100 -70.407300 -11.754300 -0.000006 -0.000006 -0.003954 -0.050960 -18.646000
0.000000 0.000000 0.000000 0.000000 0.000000 -0.000000 -1.024570 90.104300 -4.982370 89.090700 -3.108820 11.106000 15.735700 0.000005 -0.000001 89.156600 77.141900 -89.338000 8.984550 -0.406207 -0.000000 17.947100 -0.387662 -0.302286 16.377300 -0.000001 -0.000001 3.523230 -5.021070 2.433560 6.456720 -0.000001 -0.000000 -6.951650 -4.033980 0.297597 12.994200 -0.242716 4.980390 -91.135000 6.100080 -79.438800 5.348090 -0.000007 -0.000001 -55.261500 35.434000 -31.313400 24.328600 0.000019 0.000005 9.919130 22.323200 -24.720700 22.291600 -0.000001 0.000005 16.589600 5.122930 4.582060 12.994500 -0.242716 -4.980390 89.345100 10.290800 -86.338800 -5.348130 -0.000001 -0.000004 -57.029100 31.938800 -24.995900 -24.328900 0.000322 -0.000009 2.552460 5.849590 -23.633000 -22.291500 -0.000108 -0.000004 18.853300 5.386980 -2.519090 -2.192480 -6.469440 -0.000000 -174.224000 -11.658600 -4.847030 39.081100 -0.000007 -0.000012 -0.214548 0.298196 35.734900 40.985400 -0.000006 -0.000013 -0.044643 4.348620 -69.505600 11.754300 -0.000000 0.000003 -0.000077 -0.000822 -16.609200 -2.192510 6.469440 -0.000001 176.331000 18.172700 176.276000 -39.081100 -0.002282 -0.040193 -0.164520 0.239506 35.017300 -40.985400 0.000008 0.000006 4.750070 10.329000 -70.367700 -11.754300 -0.000006 -0.000006 -0.003897 -0.050367 -18.621800
0.000000 0.000000 0.000000 0.000000 0.000000 -0.000000 -1.048100 90.115800 -5.043160 89.096000 -2.989550 11.067100 15.735700 0.000005 -0.000001 89.092400 77.114300 -89.311100 8.984550 -0.406207 -0.000000 18.001700 -0.420160 -0.371712 16.377300 -0.000001 -0.000001 3.522130 -5.012930 2.512730 6.456720 -0.000001 -0.000000 -7.302340 -4.029220 0.362400 12.994200 -0.242716 4.980390 -91.141400 6.050780 -79.296300 5.348090 -0.000007 -0.000001 -55.482600 34.033700 -31.055600 24.328600 0.000019 0.000005 10.830200 22.682500 -26.385600 22.291600 -0.000001 0.000005 17.841300 5.122030 4.603530 12.994500 -0.242716 -4.980390 89.318200 10.110800 -86.121900 -5.348130 -0.000001 -0.000004 -57.751400 30.088000 -24.438700 -24.328900 0.000322 -0.000009 2.620090 5.439240 -25.781700 -22.291500 -0.000108 -0.000004 19.441000 5.398680 -2.892940 -2.192480 -6.469440 -0.000000 -174.245000 -11.600000 -4.930290 39.081100 -0.000007 -0.000012 -0.213292 0.296962 35.688200 40.985400 -0.000006 -0.000013 -0.041738 4.396270 -69.423100 11.754300 -0.000000 0.000003 -0.000072 -0.000778 -16.607600 -2.192510 6.469440 -0.000001 176.348000 18.278000 176.223000 -39.081100 -0.002282 -0.040193 -0.162899 0.237542 34.977700 -40.985400 0.000008 0.000006 4.773880 10.311000 -70.319100 -11.754300 -0.000006 -0.000006 -0.003876 -0.050141 -18.612700
0.000000 0.000000 0.000000 0.000000 0.000000 -0.000000 -1.070780 90.123200 -5.120430 89.085300 -2.860490 11.007800 15.735700 0.000005 -0.000001 89.011600 77.098900 -89.259100 8.984550 -0.406207 -0.000000 18.031700 -0.458979 -0.423172 16.377300 -0.000001 -0.000001 3.584680 -5.028700 2.575880 6.456720 -0.000001 -0.000000 -7.754410 -4.028420 0.388349 12.994200 -0.242716 4.980390 -91.146900 5.982980 -79.127400 5.348090 -0.000007 -0.000001 -55.560600 32.218800 -30.938100 24.328600 0.000019 0.000005 11.502300 22.135000 -28.372200 22.291600 -0.000001 0.000005 18.897800 5.110530 4.870860 12.994500 -0.242716 -4.980390 89.284100 9.957590 -85.866700 -5.348130 -0.000001 -0.000004 -58.289700 27.961900 -23.962200 -24.328900 0.000322 -0.000009 2.450440 4.524890 -28.490100 -22.291500 -0.000108 -0.000004 20.518200 5.410440 -3.278850 -2.192480 -6.469440 -0.000000 -174.257000 -11.523100 -5.067530 39.081100 -0.000007 -0.000012 -0.212099 0.295476 35.671900 40.985400 -0.000006 -0.000013 -0.036227 4.456190 -69.339100 11.754300 -0.000000 0.000003 -0.000075 -0.000802 -16.608500 -2.192510 6.469440 -0.000001 176.381000 18.437500 176.135000 -39.081100 -0.002282 -0.040193 -0.162071 0.236581 34.952400 -40.985400 0.000008 0.000006 4.815030 10.329400 -70.270900 -11.754300 -0.000006 -0.000006 -0.003917 -0.050573 -18.630300
0.000000 0.000000 0.000000 0.000000 0.000000 -0.000000 -1.101410 90.136100 -5.222990 89.091600 -2.741170 10.908400 15.735700 0.000005 -0.000001 88.982700 77.104800 -89.260400 8.984550 -0.406207 -0.000000 18.019600 -0.474206 -0.481355 16.377300 -0.000001 -0.000001 3.661940 -5.042220 2.574210 6.456720 -0.000001 -0.000000 -8.148330 -4.076630 0.423159 12.994200 -0.242716 4.980390 -91.144100 5.903070 -79.010600 5.348090 -0.000007 -0.000001 -55.465400 29.965400 -30.991400 24.328600 0.000019 0.000005 12.571700 21.868000 -30.909700 22.291600 -0.000001 0.000005 20.126500 5.098180 5.154480 12.994500 -0.242716 -4.980390 89.252100 9.827020 -85.626300 -5.348130 -0.000001 -0.000004 -58.645200 25.487900 -23.633800 -24.328900 0.000322 -0.000009 2.468990 4.010600 -31.664500 -22.291500 -0.000108 -0.000004 21.465300 5.417320 -3.509050 -2.192480 -6.469440 -0.000000 -174.283000 -11.516500 -5.249810 39.081100 -0.000007 -0.000012 -0.211102 0.294589 35.625700 40.985400 -0.000006 -0.000013 -0.028044 4.526000 -69.216700 11.754300 -0.000000 0.000003 -0.000071 -0.000765 -16.607100 -2.192510 6.469440 -0.000001 176.436000 18.548800 175.984000 -39.081100 -0.002282 -0.040193 -0.161590 0.236239 34.913000 -40.985400 0.000008 0.000006 4.824530 10.297600 -70.187200 -11.754300 -0.000006 -0.000006 -0.003884 -0.050227 -18.616100
